<svg width="120" height="120" viewBox="0 0 120 120" fill="none" xmlns="http://www.w3.org/2000/svg">
  <defs>
    <linearGradient id="g" x1="14" y1="8" x2="108" y2="116" gradientUnits="userSpaceOnUse">
      <stop offset="0" stop-color="#2A8C65"></stop><stop offset="0.5" stop-color="#16744F"></stop><stop offset="1" stop-color="#0A3B2C"></stop>
    </linearGradient>
    <radialGradient id="sheen" cx="0.32" cy="0.16" r="0.7"><stop offset="0" stop-color="#ffffff" stop-opacity="0.42"></stop><stop offset="1" stop-color="#ffffff" stop-opacity="0"></stop></radialGradient>
    <radialGradient id="glow" cx="0.5" cy="1" r="0.7"><stop offset="0" stop-color="#E0C58A" stop-opacity="0.5"></stop><stop offset="1" stop-color="#E0C58A" stop-opacity="0"></stop></radialGradient>
    <filter id="ds" x="-20%" y="-20%" width="140%" height="150%"><feDropShadow dx="0" dy="2.5" stdDeviation="2.2" flood-color="#042118" flood-opacity="0.55"></feDropShadow></filter>
  </defs>
  <rect x="6" y="7" width="108" height="108" rx="30" fill="#042118" opacity="0.2"></rect>
  <rect x="6" y="6" width="108" height="108" rx="30" fill="url(#g)"></rect>
  <rect x="6" y="58" width="108" height="56" rx="30" fill="url(#glow)"></rect>
  <rect x="14" y="12" width="92" height="64" rx="22" fill="url(#sheen)"></rect>
  <rect x="6.75" y="6.75" width="106.5" height="106.5" rx="29.25" fill="none" stroke="#ffffff" stroke-opacity="0.18"></rect>
  <g filter="url(#ds)" transform="translate(34,32) scale(2.17)" fill="none" stroke="#F4FBF7" stroke-width="2" stroke-linecap="round" stroke-linejoin="round">
    <path d="M12 21V10"></path><path d="M12 10c-1.6-3-5-3.8-8-2.8 1.6 1 3 2.4 4 4"></path><path d="M12 10c1.6-3 5-3.8 8-2.8-1.6 1-3 2.4-4 4"></path><path d="M12 10c0-3-2-5.4-5-5.8.8 1.8 1.5 3.4 2 5.2"></path><path d="M12 10c0-3 2-5.4 5-5.8-.8 1.8-1.5 3.4-2 5.2"></path>
  </g>
  <g transform="translate(34,32) scale(2.17)"><circle cx="12" cy="9.4" r="1.5" fill="#EFD9A4"></circle></g>
</svg>