<svg width="120" height="120" viewBox="0 0 120 120" fill="none" xmlns="http://www.w3.org/2000/svg">
  <defs>
    <linearGradient id="g" x1="14" y1="8" x2="108" y2="116" gradientUnits="userSpaceOnUse">
      <stop offset="0" stop-color="#2A8C65"></stop><stop offset="0.5" stop-color="#16744F"></stop><stop offset="1" stop-color="#0A3B2C"></stop>
    </linearGradient>
    <radialGradient id="sheen" cx="0.32" cy="0.16" r="0.7"><stop offset="0" stop-color="#ffffff" stop-opacity="0.42"></stop><stop offset="1" stop-color="#ffffff" stop-opacity="0"></stop></radialGradient>
    <radialGradient id="glow" cx="0.5" cy="1" r="0.7"><stop offset="0" stop-color="#E0C58A" stop-opacity="0.5"></stop><stop offset="1" stop-color="#E0C58A" stop-opacity="0"></stop></radialGradient>
    <filter id="ds" x="-20%" y="-20%" width="140%" height="150%"><feDropShadow dx="0" dy="2.5" stdDeviation="2.2" flood-color="#042118" flood-opacity="0.55"></feDropShadow></filter>
  </defs>
  <rect x="6" y="7" width="108" height="108" rx="30" fill="#042118" opacity="0.2"></rect>
  <rect x="6" y="6" width="108" height="108" rx="30" fill="url(#g)"></rect>
  <rect x="6" y="58" width="108" height="56" rx="30" fill="url(#glow)"></rect>
  <rect x="14" y="12" width="92" height="64" rx="22" fill="url(#sheen)"></rect>
  <rect x="6.75" y="6.75" width="106.5" height="106.5" rx="29.25" fill="none" stroke="#ffffff" stroke-opacity="0.18"></rect>
  <g filter="url(#ds)" transform="translate(34,32) scale(2.17)" fill="none" stroke="#F4FBF7" stroke-width="2" stroke-linecap="round" stroke-linejoin="round">
    <path d="M12 3 5 6v5.2c0 4.4 3 7.4 7 8.8 4-1.4 7-4.4 7-8.8V6l-7-3Z"></path>
  </g>
  <g transform="translate(34,32) scale(2.17)"><path d="M9 12l2.2 2.2L15.4 10" stroke="#EFD9A4" stroke-width="2" stroke-linecap="round" stroke-linejoin="round"></path></g>
</svg>