<svg width="120" height="120" viewBox="0 0 120 120" fill="none" xmlns="http://www.w3.org/2000/svg">
  <g transform="translate(24,24) scale(3)" fill="none" stroke="#0E4A37" stroke-width="1.7" stroke-linecap="round" stroke-linejoin="round">
    <path d="M12 21V10"></path><path d="M12 10c-1.6-3-5-3.8-8-2.8 1.6 1 3 2.4 4 4"></path><path d="M12 10c1.6-3 5-3.8 8-2.8-1.6 1-3 2.4-4 4"></path><path d="M12 10c0-3-2-5.4-5-5.8.8 1.8 1.5 3.4 2 5.2"></path><path d="M12 10c0-3 2-5.4 5-5.8-.8 1.8-1.5 3.4-2 5.2"></path>
  </g>
  <g transform="translate(24,24) scale(3)"><circle cx="12" cy="9.4" r="1.5" fill="#EFD9A4"></circle></g>
</svg>